name not saved									
datacolumns 10
datarows 76
range 21.04 21.79
endheader									
time	ground_force1_vx	ground_force1_vy	ground_force1_vz	ground_force1_px	ground_force1_py	ground_force1_pz	ground_torque1_x	ground_torque1_y	ground_torque1_z
21.04	0	0	0	-0.10309527	0.88381092	-0.0225077	0	0	0
21.05	0	0	0	-0.09846388	0.88336146	-0.02283447	0	0	0
21.06	0	0	0	-0.09386585	0.88289941	-0.02316396	0	0	0
21.07	0	0	0	-0.08930867	0.8824449	-0.02350259	0	0	0
21.08	0	0	0	-0.08480075	0.88201467	-0.02385557	0	0	0
21.09	0	0	0	-0.08035179	0.88162084	-0.02422607	0	0	0
21.1	0	0	0	-0.07597281	0.88127069	-0.02461455	0	0	0
21.11	0	0	0	-0.07167555	0.88096711	-0.02501857	0	0	0
21.12	0	0	0	-0.0674715	0.88070939	-0.02543304	0	0	0
21.13	0	0	0	-0.06337088	0.88049428	-0.02585092	0	0	0
21.14	0	0	0	-0.05938147	0.88031688	-0.02626421	0	0	0
21.15	0	0	0	-0.05550781	0.88017151	-0.02666494	0	0	0
21.16	0	0	0	-0.05175082	0.88005243	-0.02704596	0	0	0
21.17	0	0	0	-0.04810776	0.87995447	-0.02740156	0	0	0
21.18	0	0	0	-0.04457272	0.87987345	-0.02772777	0	0	0
21.19	0	0	0	-0.04113726	0.8798065	-0.02802249	0	0	0
21.2	0	0	0	-0.03779116	0.87975209	-0.02828547	0	0	0
21.21	0	0	0	-0.03452328	0.87971009	-0.02851805	0	0	0
21.22	0	0	0	-0.03132224	0.8796816	-0.02872295	0	0	0
21.23	0	0	0	-0.02817692	0.87966872	-0.02890388	0	0	0
21.24	0	0	0	-0.02507677	0.8796742	-0.02906514	0	0	0
21.25	0	0	0	-0.02201192	0.87970104	-0.02921131	0	0	0
21.26	0	0	0	-0.01897338	0.87975211	-0.02934698	0	0	0
21.27	0	0	0	-0.01595312	0.87982967	-0.02947654	0	0	0
21.28	0	0	0	-0.01294428	0.87993504	-0.02960405	0	0	0
21.29	0	0	0	-0.00994143	0.88006832	-0.02973311	0	0	0
21.3	0	0	0	-0.0069407	0.88022847	-0.0298668	0	0	0
21.31	0	0	0	-0.00393967	0.88041361	-0.03000752	0	0	0
21.32	0	0	0	-0.00093712	0.88062152	-0.03015693	0	0	0
21.33	0	0	0	0.00206721	0.88085029	-0.03031575	0	0	0
21.34	0	0	0	0.00507299	0.88109894	-0.03048373	0	0	0
21.35	0	0	0	0.00807949	0.88136792	-0.03065964	0	0	0
21.36	0	0	0	0.01108586	0.88165925	-0.03084131	0	0	0
21.37	0	0	0	0.01409129	0.88197632	-0.03102589	0	0	0
21.38	0	0	0	0.01709516	0.88232352	-0.03121007	0	0	0
21.39	0	0	0	0.02009697	0.88270556	-0.0313905	0	0	0
21.4	0	0	0	0.02309631	0.88312692	-0.03156405	0	0	0
21.41	0	0	0	0.02609265	0.88359129	-0.03172811	0	0	0
21.42	0	0	0	0.02908524	0.88410124	-0.03188082	0	0	0
21.43	0	0	0	0.032073	0.88465808	-0.0320212	0	0	0
21.44	0	0	0	0.03505457	0.88526193	-0.03214926	0	0	0
21.45	0	0	0	0.03802852	0.88591211	-0.03226593	0	0	0
21.46	0	0	0	0.04099356	0.88660759	-0.03237295	0	0	0
21.47	0	0	0	0.04394896	0.88734754	-0.03247261	0	0	0
21.48	0	0	0	0.04689489	0.88813181	-0.03256729	0	0	0
21.49	0	0	0	0.04983264	0.88896114	-0.03265891	0	0	0
21.5	0	0	0	0.05276482	0.88983735	-0.03274843	0	0	0
21.51	0	0	0	0.05569532	0.8907632	-0.03283557	0	0	0
21.52	0	0	0	0.05862905	0.89174243	-0.03291875	0	0	0
21.53	0	0	0	0.06157161	0.89277958	-0.03299524	0	0	0
21.54	0	0	0	0.06452873	0.89388005	-0.03306144	0	0	0
21.55	0	0	0	0.06750561	0.89504992	-0.03311317	0	0	0
21.56	0	0	0	0.07050629	0.89629589	-0.03314585	0	0	0
21.57	0	0	0	0.07353297	0.8976249	-0.03315461	0	0	0
21.58	0	0	0	0.0765855	0.89904375	-0.03313415	0	0	0
21.59	0	0	0	0.07966092	0.90055844	-0.03307866	0	0	0
21.6	0	0	0	0.08275329	0.90217356	-0.03298166	0	0	0
21.61	0	0	0	0.08585384	0.90389186	-0.03283621	0	0	0
21.62	0	0	0	0.08895136	0.90571417	-0.03263544	0	0	0
21.63	0	0	0	0.09203311	0.90763984	-0.03237331	0	0	0
21.64	0	0	0	0.09508583	0.90966737	-0.03204561	0	0	0
21.65	0	0	0	0.0980969	0.91179488	-0.03165067	0	0	0
21.66	0	0	0	0.10105529	0.91402035	-0.03118977	0	0	0
21.67	0	0	0	0.10395227	0.91634165	-0.03066716	0	0	0
21.68	0	0	0	0.10678189	0.91875634	-0.03008972	0	0	0
21.69	0	0	0	0.10954114	0.92126122	-0.02946619	0	0	0
21.7	0	0	0	0.1122297	0.92385198	-0.02880636	0	0	0
21.71	0	0	0	0.11484948	0.92652325	-0.0281201	0	0	0
21.72	0	0	0	0.11740389	0.92926894	-0.02741665	0	0	0
21.73	0	0	0	0.11989712	0.93208288	-0.02670407	0	0	0
21.74	0	0	0	0.12233342	0.93495946	-0.02598893	0	0	0
21.75	0	0	0	0.12471662	0.93789432	-0.02527629	0	0	0
21.76	0	0	0	0.12704984	0.94088484	-0.02456985	0	0	0
21.77	0	0	0	0.12933553	0.94393065	-0.02387229	0	0	0
21.78	0	0	0	0.13157574	0.94703401	-0.02318566	0	0	0
21.79	0	0	0	0.13377257	0.95020018	-0.02251164	0	0	0
